<svg xmlns="http://www.w3.org/2000/svg" viewBox="0 0 1200 630" role="img" aria-label="Working with Carl default graphic">
  <defs>
    <linearGradient id="bg" x1="0%" x2="100%" y1="0%" y2="100%">
      <stop offset="0%" stop-color="#f8f5f1" />
      <stop offset="100%" stop-color="#dfc3a6" />
    </linearGradient>
  </defs>
  <rect width="1200" height="630" fill="url(#bg)" />
  <g fill="none" stroke="#c26d1c" stroke-width="48" stroke-linecap="round" stroke-linejoin="round">
    <path d="M360 210c-67-78-168-130-288-130" opacity="0.2" />
    <path d="M840 210c67-78 168-130 288-130" opacity="0.2" />
    <path d="M840 420c67 78 168 130 288 130" opacity="0.2" />
    <path d="M360 420c-67 78-168 130-288 130" opacity="0.2" />
    <path d="M760 200c-70-83-176-140-300-140-247 0-420 190-420 455" opacity="0.35" />
    <path d="M760 430c-70 83-176 140-300 140-247 0-420-190-420-455" opacity="0.35" />
  </g>
  <g fill="#1f1a17" opacity="0.75">
    <text x="600" y="295" text-anchor="middle" font-family="'Inter var', 'Inter', -apple-system, BlinkMacSystemFont, 'Segoe UI', sans-serif" font-size="96" font-weight="700">Working with Carl</text>
    <text x="600" y="380" text-anchor="middle" font-family="'Inter var', 'Inter', -apple-system, BlinkMacSystemFont, 'Segoe UI', sans-serif" font-size="40" font-weight="500" letter-spacing="0.08em">A place for projects and recipes</text>
  </g>
</svg>
